<svg width="505" height="100" viewBox="0 0 505 100" fill="none" xmlns="http://www.w3.org/2000/svg">
<g filter="url(#filter0_d)">
<path d="M45.2447 14.6352C46.7415 10.0287 53.2585 10.0287 54.7553 14.6353L60.1031 31.0942C60.7725 33.1543 62.6923 34.5491 64.8584 34.5491H82.1644C87.008 34.5491 89.0219 40.7472 85.1033 43.5942L71.1025 53.7664C69.3501 55.0397 68.6168 57.2965 69.2861 59.3566L74.634 75.8156C76.1307 80.4222 70.8583 84.2528 66.9398 81.4058L52.9389 71.2336C51.1865 69.9603 48.8135 69.9603 47.0611 71.2336L33.0602 81.4058C29.1417 84.2528 23.8693 80.4221 25.366 75.8156L30.7139 59.3566C31.3832 57.2965 30.6499 55.0397 28.8975 53.7664L14.8967 43.5942C10.9781 40.7472 12.992 34.5491 17.8356 34.5491H35.1416C37.3077 34.5491 39.2275 33.1543 39.8969 31.0942L45.2447 14.6352Z" fill="#9BE0D0"/>
<path d="M47.1468 15.2533C48.0449 12.4894 51.9551 12.4893 52.8532 15.2533L58.201 31.7123C59.1381 34.5964 61.8258 36.5491 64.8584 36.5491H82.1644C85.0706 36.5491 86.2789 40.268 83.9278 41.9762L69.9269 52.1484C67.4735 53.9309 66.4469 57.0905 67.384 59.9746L72.7319 76.4336C73.6299 79.1976 70.4665 81.4959 68.1153 79.7877L54.1145 69.6155C51.6611 67.833 48.3389 67.833 45.8855 69.6155L31.8847 79.7877C29.5335 81.4959 26.3701 79.1976 27.2681 76.4336L32.616 59.9746C33.5531 57.0905 32.5265 53.9309 30.0731 52.1484L16.0722 41.9762C13.7211 40.268 14.9294 36.5491 17.8356 36.5491H35.1416C38.1742 36.5491 40.8619 34.5964 41.799 31.7123L47.1468 15.2533Z" stroke="#58BCA4" stroke-width="4"/>
</g>
<g filter="url(#filter1_d)">
<path d="M145.245 14.6352C146.741 10.0287 153.259 10.0287 154.755 14.6353L160.103 31.0942C160.773 33.1543 162.692 34.5491 164.858 34.5491H182.164C187.008 34.5491 189.022 40.7472 185.103 43.5942L171.102 53.7664C169.35 55.0397 168.617 57.2965 169.286 59.3566L174.634 75.8156C176.131 80.4222 170.858 84.2528 166.94 81.4058L152.939 71.2336C151.186 69.9603 148.814 69.9603 147.061 71.2336L133.06 81.4058C129.142 84.2528 123.869 80.4221 125.366 75.8156L130.714 59.3566C131.383 57.2965 130.65 55.0397 128.898 53.7664L114.897 43.5942C110.978 40.7472 112.992 34.5491 117.836 34.5491H135.142C137.308 34.5491 139.227 33.1543 139.897 31.0942L145.245 14.6352Z" fill="#9BE0D0"/>
<path d="M147.147 15.2533C148.045 12.4894 151.955 12.4893 152.853 15.2533L158.201 31.7123C159.138 34.5964 161.826 36.5491 164.858 36.5491H182.164C185.071 36.5491 186.279 40.268 183.928 41.9762L169.927 52.1484C167.474 53.9309 166.447 57.0905 167.384 59.9746L172.732 76.4336C173.63 79.1976 170.466 81.4959 168.115 79.7877L154.114 69.6155C151.661 67.833 148.339 67.833 145.886 69.6155L131.885 79.7877C129.534 81.4959 126.37 79.1976 127.268 76.4336L132.616 59.9746C133.553 57.0905 132.526 53.9309 130.073 52.1484L116.072 41.9762C113.721 40.268 114.929 36.5491 117.836 36.5491H135.142C138.174 36.5491 140.862 34.5964 141.799 31.7123L147.147 15.2533Z" stroke="#58BCA4" stroke-width="4"/>
</g>
<g filter="url(#filter2_d)">
<path d="M245.245 14.6352C246.741 10.0287 253.259 10.0287 254.755 14.6353L260.103 31.0942C260.773 33.1543 262.692 34.5491 264.858 34.5491H282.164C287.008 34.5491 289.022 40.7472 285.103 43.5942L271.102 53.7664C269.35 55.0397 268.617 57.2965 269.286 59.3566L274.634 75.8156C276.131 80.4222 270.858 84.2528 266.94 81.4058L252.939 71.2336C251.186 69.9603 248.814 69.9603 247.061 71.2336L233.06 81.4058C229.142 84.2528 223.869 80.4221 225.366 75.8156L230.714 59.3566C231.383 57.2965 230.65 55.0397 228.898 53.7664L214.897 43.5942C210.978 40.7472 212.992 34.5491 217.836 34.5491H235.142C237.308 34.5491 239.227 33.1543 239.897 31.0942L245.245 14.6352Z" fill="#9BE0D0"/>
<path d="M247.147 15.2533C248.045 12.4894 251.955 12.4893 252.853 15.2533L258.201 31.7123C259.138 34.5964 261.826 36.5491 264.858 36.5491H282.164C285.071 36.5491 286.279 40.268 283.928 41.9762L269.927 52.1484C267.474 53.9309 266.447 57.0905 267.384 59.9746L272.732 76.4336C273.63 79.1976 270.466 81.4959 268.115 79.7877L254.114 69.6155C251.661 67.833 248.339 67.833 245.886 69.6155L231.885 79.7877C229.534 81.4959 226.37 79.1976 227.268 76.4336L232.616 59.9746C233.553 57.0905 232.526 53.9309 230.073 52.1484L216.072 41.9762C213.721 40.268 214.929 36.5491 217.836 36.5491H235.142C238.174 36.5491 240.862 34.5964 241.799 31.7123L247.147 15.2533Z" stroke="#58BCA4" stroke-width="4"/>
</g>
<g filter="url(#filter3_d)">
<path d="M450.245 14.6352C451.741 10.0287 458.259 10.0287 459.755 14.6353L465.103 31.0942C465.773 33.1543 467.692 34.5491 469.858 34.5491H487.164C492.008 34.5491 494.022 40.7472 490.103 43.5942L476.102 53.7664C474.35 55.0397 473.617 57.2965 474.286 59.3566L479.634 75.8156C481.131 80.4222 475.858 84.2528 471.94 81.4058L457.939 71.2336C456.186 69.9603 453.814 69.9603 452.061 71.2336L438.06 81.4058C434.142 84.2528 428.869 80.4221 430.366 75.8156L435.714 59.3566C436.383 57.2965 435.65 55.0397 433.898 53.7664L419.897 43.5942C415.978 40.7472 417.992 34.5491 422.836 34.5491H440.142C442.308 34.5491 444.227 33.1543 444.897 31.0942L450.245 14.6352Z" fill="#9BE0D0"/>
<path d="M452.147 15.2533C453.045 12.4894 456.955 12.4893 457.853 15.2533L463.201 31.7123C464.138 34.5964 466.826 36.5491 469.858 36.5491H487.164C490.071 36.5491 491.279 40.268 488.928 41.9762L474.927 52.1484C472.474 53.9309 471.447 57.0905 472.384 59.9746L477.732 76.4336C478.63 79.1976 475.466 81.4959 473.115 79.7877L459.114 69.6155C456.661 67.833 453.339 67.833 450.886 69.6155L436.885 79.7877C434.534 81.4959 431.37 79.1976 432.268 76.4336L437.616 59.9746C438.553 57.0905 437.526 53.9309 435.073 52.1484L421.072 41.9762C418.721 40.268 419.929 36.5491 422.836 36.5491H440.142C443.174 36.5491 445.862 34.5964 446.799 31.7123L452.147 15.2533Z" stroke="#58BCA4" stroke-width="4"/>
</g>
<g filter="url(#filter4_d)">
<path d="M345.245 14.6352C346.741 10.0287 353.259 10.0287 354.755 14.6353L360.103 31.0942C360.773 33.1543 362.692 34.5491 364.858 34.5491H382.164C387.008 34.5491 389.022 40.7472 385.103 43.5942L371.102 53.7664C369.35 55.0397 368.617 57.2965 369.286 59.3566L374.634 75.8156C376.131 80.4222 370.858 84.2528 366.94 81.4058L352.939 71.2336C351.186 69.9603 348.814 69.9603 347.061 71.2336L333.06 81.4058C329.142 84.2528 323.869 80.4221 325.366 75.8156L330.714 59.3566C331.383 57.2965 330.65 55.0397 328.898 53.7664L314.897 43.5942C310.978 40.7472 312.992 34.5491 317.836 34.5491H335.142C337.308 34.5491 339.227 33.1543 339.897 31.0942L345.245 14.6352Z" fill="#9BE0D0"/>
<path d="M347.147 15.2533C348.045 12.4894 351.955 12.4893 352.853 15.2533L358.201 31.7123C359.138 34.5964 361.826 36.5491 364.858 36.5491H382.164C385.071 36.5491 386.279 40.268 383.928 41.9762L369.927 52.1484C367.474 53.9309 366.447 57.0905 367.384 59.9746L372.732 76.4336C373.63 79.1976 370.466 81.4959 368.115 79.7877L354.114 69.6155C351.661 67.833 348.339 67.833 345.886 69.6155L331.885 79.7877C329.534 81.4959 326.37 79.1976 327.268 76.4336L332.616 59.9746C333.553 57.0905 332.526 53.9309 330.073 52.1484L316.072 41.9762C313.721 40.268 314.929 36.5491 317.836 36.5491H335.142C338.174 36.5491 340.862 34.5964 341.799 31.7123L347.147 15.2533Z" stroke="#58BCA4" stroke-width="4"/>
</g>
<defs>
<filter id="filter0_d" x="2.82617" y="1.18066" width="94.348" height="91.203" filterUnits="userSpaceOnUse" color-interpolation-filters="sRGB">
<feFlood flood-opacity="0" result="BackgroundImageFix"/>
<feColorMatrix in="SourceAlpha" type="matrix" values="0 0 0 0 0 0 0 0 0 0 0 0 0 0 0 0 0 0 127 0"/>
<feOffset/>
<feGaussianBlur stdDeviation="5"/>
<feColorMatrix type="matrix" values="0 0 0 0 0 0 0 0 0 0 0 0 0 0 0 0 0 0 0.25 0"/>
<feBlend mode="normal" in2="BackgroundImageFix" result="effect1_dropShadow"/>
<feBlend mode="normal" in="SourceGraphic" in2="effect1_dropShadow" result="shape"/>
</filter>
<filter id="filter1_d" x="102.826" y="1.18066" width="94.348" height="91.203" filterUnits="userSpaceOnUse" color-interpolation-filters="sRGB">
<feFlood flood-opacity="0" result="BackgroundImageFix"/>
<feColorMatrix in="SourceAlpha" type="matrix" values="0 0 0 0 0 0 0 0 0 0 0 0 0 0 0 0 0 0 127 0"/>
<feOffset/>
<feGaussianBlur stdDeviation="5"/>
<feColorMatrix type="matrix" values="0 0 0 0 0 0 0 0 0 0 0 0 0 0 0 0 0 0 0.25 0"/>
<feBlend mode="normal" in2="BackgroundImageFix" result="effect1_dropShadow"/>
<feBlend mode="normal" in="SourceGraphic" in2="effect1_dropShadow" result="shape"/>
</filter>
<filter id="filter2_d" x="202.826" y="1.18066" width="94.348" height="91.203" filterUnits="userSpaceOnUse" color-interpolation-filters="sRGB">
<feFlood flood-opacity="0" result="BackgroundImageFix"/>
<feColorMatrix in="SourceAlpha" type="matrix" values="0 0 0 0 0 0 0 0 0 0 0 0 0 0 0 0 0 0 127 0"/>
<feOffset/>
<feGaussianBlur stdDeviation="5"/>
<feColorMatrix type="matrix" values="0 0 0 0 0 0 0 0 0 0 0 0 0 0 0 0 0 0 0.25 0"/>
<feBlend mode="normal" in2="BackgroundImageFix" result="effect1_dropShadow"/>
<feBlend mode="normal" in="SourceGraphic" in2="effect1_dropShadow" result="shape"/>
</filter>
<filter id="filter3_d" x="407.826" y="1.18066" width="94.348" height="91.203" filterUnits="userSpaceOnUse" color-interpolation-filters="sRGB">
<feFlood flood-opacity="0" result="BackgroundImageFix"/>
<feColorMatrix in="SourceAlpha" type="matrix" values="0 0 0 0 0 0 0 0 0 0 0 0 0 0 0 0 0 0 127 0"/>
<feOffset/>
<feGaussianBlur stdDeviation="5"/>
<feColorMatrix type="matrix" values="0 0 0 0 0 0 0 0 0 0 0 0 0 0 0 0 0 0 0.25 0"/>
<feBlend mode="normal" in2="BackgroundImageFix" result="effect1_dropShadow"/>
<feBlend mode="normal" in="SourceGraphic" in2="effect1_dropShadow" result="shape"/>
</filter>
<filter id="filter4_d" x="302.826" y="1.18066" width="94.348" height="91.203" filterUnits="userSpaceOnUse" color-interpolation-filters="sRGB">
<feFlood flood-opacity="0" result="BackgroundImageFix"/>
<feColorMatrix in="SourceAlpha" type="matrix" values="0 0 0 0 0 0 0 0 0 0 0 0 0 0 0 0 0 0 127 0"/>
<feOffset/>
<feGaussianBlur stdDeviation="5"/>
<feColorMatrix type="matrix" values="0 0 0 0 0 0 0 0 0 0 0 0 0 0 0 0 0 0 0.25 0"/>
<feBlend mode="normal" in2="BackgroundImageFix" result="effect1_dropShadow"/>
<feBlend mode="normal" in="SourceGraphic" in2="effect1_dropShadow" result="shape"/>
</filter>
</defs>
</svg>
